<?xml version="1.0" standalone="no"?>
<!DOCTYPE svg PUBLIC "-//W3C//DTD SVG 20010904//EN"
 "http://www.w3.org/TR/2001/REC-SVG-20010904/DTD/svg10.dtd">
<svg version="1.0" xmlns="http://www.w3.org/2000/svg"
 width="1911.000000pt" height="1911.000000pt" viewBox="0 0 1911.000000 1911.000000"
 preserveAspectRatio="xMidYMid meet">
<metadata>
Created by potrace 1.11, written by Peter Selinger 2001-2013
</metadata>
<g transform="translate(0.000000,1911.000000) scale(0.100000,-0.100000)"
fill="#000000" stroke="none">
<path d="M9209 18896 c-2 -2 -69 -7 -149 -11 -167 -8 -208 -10 -305 -19 -211
-20 -264 -26 -295 -31 -14 -2 -50 -6 -80 -10 -30 -4 -66 -8 -80 -10 -14 -2
-77 -11 -140 -20 -142 -20 -171 -25 -190 -30 -8 -2 -31 -6 -50 -9 -19 -3 -46
-8 -60 -11 -309 -61 -419 -85 -596 -130 -117 -30 -234 -61 -260 -69 -27 -8
-96 -29 -154 -47 -774 -233 -1507 -565 -2215 -1002 -122 -76 -440 -287 -495
-329 -14 -11 -59 -44 -100 -74 -105 -77 -238 -178 -285 -216 -152 -125 -275
-227 -295 -244 -14 -13 -36 -32 -50 -44 -178 -153 -461 -428 -678 -658 -235
-249 -553 -634 -744 -903 -143 -199 -323 -472 -423 -639 -37 -63 -75 -126 -84
-140 -9 -14 -21 -34 -27 -45 -6 -11 -53 -96 -104 -190 -79 -144 -232 -449
-307 -615 -43 -94 -181 -427 -193 -465 -7 -22 -16 -44 -20 -50 -4 -5 -30 -77
-59 -160 -29 -82 -55 -157 -58 -165 -4 -8 -7 -17 -8 -20 -1 -3 -14 -43 -29
-90 -89 -273 -164 -548 -232 -850 -4 -19 -8 -37 -9 -40 -4 -15 -26 -119 -30
-140 -3 -14 -19 -101 -36 -195 -16 -93 -32 -181 -34 -195 -3 -14 -9 -59 -15
-100 -11 -85 -19 -143 -25 -180 -2 -14 -6 -52 -10 -85 -3 -33 -10 -96 -15
-140 -5 -44 -12 -118 -16 -165 -3 -47 -8 -98 -9 -115 -27 -276 -27 -1006 -1
-1365 10 -130 17 -219 21 -250 2 -19 6 -53 9 -75 3 -22 8 -65 11 -95 17 -151
25 -213 40 -299 3 -16 7 -46 10 -67 3 -22 7 -48 9 -59 2 -11 7 -40 11 -65 4
-25 9 -54 11 -65 2 -11 11 -56 19 -100 18 -99 42 -217 55 -270 6 -22 26 -107
45 -190 20 -82 42 -172 50 -200 8 -27 33 -115 55 -195 70 -246 235 -724 296
-857 8 -18 21 -51 29 -73 54 -153 314 -700 440 -925 36 -64 65 -118 65 -120 0
-2 18 -34 41 -72 22 -37 45 -75 49 -83 49 -86 150 -245 277 -435 138 -206 180
-267 248 -360 31 -43 268 -347 292 -375 11 -14 49 -59 84 -100 35 -41 66 -77
69 -80 3 -3 30 -34 60 -70 222 -261 603 -639 935 -927 350 -302 894 -696 1260
-912 22 -13 76 -45 120 -71 153 -92 345 -194 590 -314 218 -107 268 -131 395
-185 41 -18 89 -39 105 -46 126 -56 437 -173 655 -245 235 -78 640 -195 745
-216 11 -2 56 -13 100 -23 87 -22 455 -96 520 -105 22 -4 83 -13 135 -21 161
-26 186 -30 305 -44 123 -15 243 -28 345 -36 36 -3 90 -7 120 -10 320 -27
1087 -27 1380 0 25 3 74 7 110 10 106 7 208 18 345 35 189 24 228 29 325 45
47 8 103 17 125 20 22 4 130 24 240 47 110 22 211 42 224 44 14 3 28 7 31 9 4
2 22 7 41 10 126 22 591 154 849 241 297 101 861 325 894 355 6 5 18 9 28 9
10 0 18 5 18 10 0 6 7 10 15 10 41 0 764 387 938 502 32 21 60 38 63 38 2 0
38 23 80 50 41 28 77 50 80 50 2 0 12 6 21 14 10 8 77 54 148 102 197 132 704
516 745 564 3 3 32 28 65 55 32 28 66 57 75 65 9 8 52 47 96 86 121 109 138
125 294 278 116 114 256 260 405 420 83 88 332 388 443 531 160 207 453 625
517 737 6 9 44 73 84 140 84 137 211 358 211 364 0 2 11 22 25 44 14 22 22 40
19 40 -4 0 0 8 8 18 30 33 253 499 340 706 28 67 56 135 64 151 59 130 214
571 288 816 98 328 203 764 252 1054 1 11 8 49 14 85 6 36 13 76 15 90 4 21
23 157 41 295 3 22 7 51 9 65 2 14 7 59 10 100 4 41 9 83 10 92 2 9 7 58 10
110 4 51 8 109 10 128 27 252 27 1027 0 1360 -2 30 -7 89 -10 130 -3 41 -10
113 -15 160 -5 47 -12 112 -15 145 -3 33 -8 71 -10 85 -2 14 -6 39 -9 55 -3
17 -8 54 -11 84 -4 30 -9 63 -11 75 -2 11 -6 36 -9 56 -3 20 -7 47 -10 60 -3
13 -7 40 -10 60 -3 20 -7 47 -10 60 -3 14 -10 50 -16 80 -5 30 -12 64 -14 75
-3 20 -30 153 -39 190 -2 11 -11 50 -20 86 -8 37 -17 78 -20 90 -2 13 -20 85
-39 160 -230 893 -613 1792 -1095 2569 -103 165 -295 455 -371 558 -55 75
-182 244 -219 291 -59 75 -157 197 -167 207 -5 6 -28 32 -50 58 -45 55 -50 60
-125 146 -30 35 -63 72 -73 84 -119 139 -502 522 -696 696 -46 41 -89 80 -95
85 -6 6 -78 67 -161 136 -282 236 -479 384 -770 581 -232 157 -482 310 -740
453 -528 292 -1209 577 -1795 751 -63 18 -128 38 -145 43 -29 9 -105 30 -135
36 -8 2 -69 18 -135 35 -153 40 -441 103 -525 115 -19 3 -53 10 -75 15 -22 5
-74 14 -115 20 -41 7 -86 14 -100 16 -26 5 -211 31 -270 39 -126 16 -159 20
-275 31 -110 10 -144 13 -235 19 -47 3 -110 8 -140 11 -66 6 -886 15 -891 10z"/>
</g>
</svg>
